<svg viewBox="0 0 512 419.916" xml:space="preserve" xmlns="http://www.w3.org/2000/svg"><path d="M511.379 101.124c-3.012-8.65-11.662-5.565-13.59 5.396-6.794 38.72-19.805 114.087-26.744 150.493-.627 3.59-7.035 10.145-10.698 10.023-60.235-2.049-261.713-4.676-261.713-4.676L131.965 69.752l-3.783-12.986a286.35 286.35 0 0 0-1.687-4.386c-4.433-11.541-11.83-19.06-18.118-23.492-6.217-4.457-11.373-6.047-12.096-6.288l-.242-.072L50.02 11.035C46.936 4.65 37.201 0 25.588 0 11.469 0 0 6.818 0 15.275c0 8.409 11.469 15.252 25.588 15.252 4.578 0 8.818-.771 12.578-2.096l50.693 12.722c.82.266 3.808 1.493 7.133 4.023 3.71 2.867 7.902 7.228 10.553 14.144 3.518 9.181 22.287 61.151 40.094 110.569 8.914 24.721 17.588 48.863 24.07 66.813a5584.105 5584.105 0 0 0 10.529 29.25c.145.796.578 3.156.554 5.88.024 2.915-.458 6.168-1.759 8.696-1.301 2.556-3.036 4.65-7.181 6.507-12.866 5.638-20.384 18.19-20.479 31.201a29.94 29.94 0 0 0 10.48 23.034c7.156 6.12 17.3 9.396 29.805 9.396h13.83l16.963.049c-14.36 4.554-24.817 17.806-24.817 33.708 0 19.563 15.854 35.49 35.515 35.49 19.613 0 35.516-15.927 35.516-35.49 0-15.854-10.433-29.106-24.77-33.686l16.916.024c23.828.023 50.813.097 76.933.169 18.239.023 36.021.048 52.021.12l15.709.023c-13.758 4.867-23.707 17.878-23.707 33.348 0 19.563 15.948 35.49 35.538 35.49 19.638 0 35.49-15.927 35.49-35.49 0-15.396-9.782-28.359-23.468-33.322l15.589.048c5.951 0 9.373.024 9.373.024h1.928c5.373 0 9.687-4.313 9.687-9.64.049-5.323-4.289-9.661-9.613-9.71 0 0-223.379-.506-262.701-.506-9.301-.022-14.457-2.36-17.155-4.698-2.698-2.385-3.71-5.06-3.807-8.385-.097-5.301 3.614-11.372 8.771-13.469 8.264-3.47 13.926-9.493 16.914-15.71 1.445-2.963 2.313-5.879 2.891-8.697 1.783.409 3.615.698 5.543.747l252.99 5.155h2.407c5.639 0 10.844-1.999 14.938-5.276 4.048-3.301 7.229-7.999 8.192-13.732l24.647-146.566c.313-1.807.458-3.614.458-5.396 0-3.827 1.397-10.694 0-14.164z" fill="#ffffff" class="fill-000000"></path></svg>